<mxfile host="app.diagrams.net" modified="2024-05-22T08:58:49.940Z" agent="Mozilla/5.0 (Windows NT 10.0; Win64; x64) AppleWebKit/537.36 (KHTML, like Gecko) Chrome/116.0.0.0 Safari/537.36" etag="hcqkkl7FngZvdPeiFDvB" version="24.4.4" type="github">
  <diagram name="第 1 页" id="9FIsE67IpEGiFB8gOiiH">
    <mxGraphModel dx="659" dy="349" grid="1" gridSize="10" guides="1" tooltips="1" connect="1" arrows="1" fold="1" page="1" pageScale="1" pageWidth="827" pageHeight="1169" math="0" shadow="0">
      <root>
        <mxCell id="0" />
        <mxCell id="1" parent="0" />
        <mxCell id="Avi6nKkZ3f8y_CkU2Rjl-1" value="原指令1" style="rounded=0;whiteSpace=wrap;html=1;fontFamily=宋体;" vertex="1" parent="1">
          <mxGeometry x="120" y="160" width="120" height="40" as="geometry" />
        </mxCell>
        <mxCell id="Avi6nKkZ3f8y_CkU2Rjl-7" value="" style="edgeStyle=orthogonalEdgeStyle;rounded=0;orthogonalLoop=1;jettySize=auto;html=1;entryX=0;entryY=0.5;entryDx=0;entryDy=0;fontFamily=宋体;" edge="1" parent="1" target="Avi6nKkZ3f8y_CkU2Rjl-4">
          <mxGeometry relative="1" as="geometry">
            <mxPoint x="240" y="220.12" as="sourcePoint" />
            <mxPoint x="293.1600000000001" y="139.89999999999995" as="targetPoint" />
            <Array as="points">
              <mxPoint x="260" y="220" />
              <mxPoint x="260" y="140" />
            </Array>
          </mxGeometry>
        </mxCell>
        <mxCell id="Avi6nKkZ3f8y_CkU2Rjl-2" value="跳转指令" style="rounded=0;whiteSpace=wrap;html=1;fontFamily=宋体;" vertex="1" parent="1">
          <mxGeometry x="120" y="200" width="120" height="40" as="geometry" />
        </mxCell>
        <mxCell id="Avi6nKkZ3f8y_CkU2Rjl-3" value="原指令2" style="rounded=0;whiteSpace=wrap;html=1;fontFamily=宋体;" vertex="1" parent="1">
          <mxGeometry x="120" y="240" width="120" height="40" as="geometry" />
        </mxCell>
        <mxCell id="Avi6nKkZ3f8y_CkU2Rjl-4" value="保存上下文信息" style="rounded=0;whiteSpace=wrap;html=1;fontFamily=宋体;" vertex="1" parent="1">
          <mxGeometry x="280" y="120" width="120" height="40" as="geometry" />
        </mxCell>
        <mxCell id="Avi6nKkZ3f8y_CkU2Rjl-5" value="插桩功能代码" style="rounded=0;whiteSpace=wrap;html=1;fontFamily=宋体;" vertex="1" parent="1">
          <mxGeometry x="280" y="160" width="120" height="40" as="geometry" />
        </mxCell>
        <mxCell id="Avi6nKkZ3f8y_CkU2Rjl-6" value="恢复上下文信息" style="rounded=0;whiteSpace=wrap;html=1;fontFamily=宋体;" vertex="1" parent="1">
          <mxGeometry x="280" y="200" width="120" height="40" as="geometry" />
        </mxCell>
        <mxCell id="Avi6nKkZ3f8y_CkU2Rjl-10" value="" style="edgeStyle=orthogonalEdgeStyle;rounded=0;orthogonalLoop=1;jettySize=auto;html=1;fontFamily=宋体;" edge="1" parent="1" source="Avi6nKkZ3f8y_CkU2Rjl-9" target="Avi6nKkZ3f8y_CkU2Rjl-3">
          <mxGeometry relative="1" as="geometry" />
        </mxCell>
        <mxCell id="Avi6nKkZ3f8y_CkU2Rjl-9" value="跳转指令" style="rounded=0;whiteSpace=wrap;html=1;fontFamily=宋体;" vertex="1" parent="1">
          <mxGeometry x="280" y="240" width="120" height="40" as="geometry" />
        </mxCell>
        <mxCell id="Avi6nKkZ3f8y_CkU2Rjl-14" value="" style="shape=curlyBracket;whiteSpace=wrap;html=1;rounded=1;labelPosition=left;verticalLabelPosition=middle;align=right;verticalAlign=middle;size=0.5;" vertex="1" parent="1">
          <mxGeometry x="410" y="130" width="20" height="100" as="geometry" />
        </mxCell>
        <mxCell id="Avi6nKkZ3f8y_CkU2Rjl-15" value="&lt;font face=&quot;宋体&quot; style=&quot;font-size: 12px; font-weight: normal;&quot;&gt;变量检测&lt;/font&gt;&lt;div style=&quot;font-size: 12px;&quot;&gt;&lt;font face=&quot;宋体&quot; style=&quot;font-size: 12px; font-weight: normal;&quot;&gt;异常情况检测&lt;/font&gt;&lt;/div&gt;&lt;div style=&quot;font-size: 12px;&quot;&gt;&lt;font face=&quot;宋体&quot; style=&quot;font-size: 12px; font-weight: normal;&quot;&gt;代码覆盖率检测&lt;/font&gt;&lt;/div&gt;&lt;div style=&quot;font-size: 12px;&quot;&gt;&lt;font face=&quot;宋体&quot; style=&quot;font-size: 12px; font-weight: normal;&quot;&gt;目标测试点距离计算&lt;/font&gt;&lt;/div&gt;&lt;div style=&quot;font-size: 12px;&quot;&gt;&lt;font face=&quot;宋体&quot;&gt;&lt;span style=&quot;font-weight: 400;&quot;&gt;系统情况检测&lt;/span&gt;&lt;/font&gt;&lt;/div&gt;&lt;div style=&quot;font-size: 12px;&quot;&gt;&lt;font face=&quot;宋体&quot;&gt;&lt;span style=&quot;font-weight: 400;&quot;&gt;...&lt;/span&gt;&lt;/font&gt;&lt;/div&gt;&lt;div style=&quot;font-size: 12px;&quot;&gt;&lt;br style=&quot;font-family: 宋体; font-size: 12px; font-weight: 400;&quot;&gt;&lt;/div&gt;" style="text;strokeColor=none;fillColor=none;html=1;fontSize=24;fontStyle=1;verticalAlign=middle;align=left;" vertex="1" parent="1">
          <mxGeometry x="430" y="150" width="100" height="70" as="geometry" />
        </mxCell>
      </root>
    </mxGraphModel>
  </diagram>
</mxfile>
